# xmcd
#
# Track frame offsets:
#	150
#	11166
#	23560
#	71080
#	90586
#	103141
#	116175
#	136529
#	155048
#	171958
#	188874
#	207488
#	222774
#	244320
#	263616
#	284298
#	300618
#
# Disc length: 4462 seconds
#
# Revision: 0
# Processed by: cddbd v1.5.2PL0 Copyright (c) Steve Scherf et al.
# Submitted via: dBpowerAMP V4.0
#
DISCID=f5116c11
DTITLE=Canned Heat - The Very Best of Canned Heat Volume Two
DYEAR=2006
DGENRE=Blues
TTITLE0=Cherokee Dance
TTITLE1=Wait And See
TTITLE2=I Love My Baby
TTITLE3=John Lee Hooker Boogie
TTITLE4=Drifting
TTITLE5=Saturday Night Fish Fry
TTITLE6=Oh Baby
TTITLE7=Mercury Blues
TTITLE8=Saturday Blues
TTITLE9=Little Wheel
TTITLE10=Let's Work Together
TTITLE11=I Used To Be Bad
TTITLE12=The Hucklebuck
TTITLE13=Keep It To Yourself
TTITLE14=Younderwall
TTITLE15=Hell's On Down The Road
TTITLE16=Shake It Boogie
EXTD=
EXTT0=
EXTT1=
EXTT2=
EXTT3=
EXTT4=
EXTT5=
EXTT6=
EXTT7=
EXTT8=
EXTT9=
EXTT10=
EXTT11=
EXTT12=
EXTT13=
EXTT14=
EXTT15=
EXTT16=
PLAYORDER=
